<?xml version="1.0"?>
<svg xmlns="http://www.w3.org/2000/svg" xmlns:xlink="http://www.w3.org/1999/xlink" xmlns:svgjs="http://svgjs.com/svgjs" version="1.1" width="512" height="512" x="0" y="0" viewBox="0 0 512 512" style="enable-background:new 0 0 512 512" xml:space="preserve" class=""><g><g xmlns="http://www.w3.org/2000/svg"><path d="m271.459 67.794h-30.918v-63.672c0-2.276 1.845-4.122 4.122-4.122h22.675c2.276 0 4.122 1.845 4.122 4.122v63.672z" fill="#497285" data-original="#497285" style="" class=""/><path d="m295.163 94.79h-78.327v-33.925c0-2.276 1.845-4.122 4.122-4.122h70.083c2.276 0 4.122 1.845 4.122 4.122z" fill="#d2d5d4" data-original="#d2d5d4" style=""/><path d="m264.245 56.743v38.047h30.918v-33.926c0-2.276-1.846-4.121-4.122-4.121z" fill="#c7c9c8" data-original="#c7c9c8" style=""/><path d="m407.5 106.697v163.801c0 7.416-1.65 14.74-4.83 21.44l-17.137 36.108c-3.18 6.701-4.83 14.024-4.83 21.44v144.361c0 10.026-8.131 18.153-18.16 18.153h-213.087c-10.03 0-18.16-8.127-18.16-18.153v-144.36c0-7.416-1.65-14.74-4.83-21.44l-17.137-36.108c-3.18-6.701-4.83-14.024-4.83-21.44v-163.802c0-10.026 8.131-18.153 18.16-18.153h266.681c10.029 0 18.16 8.128 18.16 18.153z" fill="#003180" data-original="#ffde5c" style="" class=""/><path d="m389.34 88.544h-30.918c10.03 0 18.16 8.127 18.16 18.153v163.801c0 7.417-1.65 14.74-4.83 21.44l-17.136 36.108c-3.18 6.701-4.83 14.024-4.83 21.44v144.361c0 10.026-8.131 18.153-18.161 18.153h30.918c10.03 0 18.161-8.127 18.161-18.153v-144.361c0-7.416 1.65-14.739 4.83-21.44l17.136-36.108c3.18-6.7 4.83-14.024 4.83-21.44v-163.801c0-10.025-8.131-18.153-18.16-18.153z" fill="#002258" data-original="#ffc736" style="" class=""/><path d="m376.582 262.13v-136.573c0-3.373-2.736-6.108-6.11-6.108h-228.943c-3.375 0-6.11 2.735-6.11 6.108v136.573c0 3.373 2.736 6.108 6.11 6.108h228.943c3.374-.001 6.11-2.735 6.11-6.108z" fill="#b9f5ff" data-original="#b9f5ff" style="" class=""/><path d="m370.471 119.45h-30.918c3.375 0 6.11 2.734 6.11 6.108v136.572c0 3.373-2.736 6.108-6.11 6.108h30.918c3.375 0 6.11-2.734 6.11-6.108v-136.573c.001-3.373-2.735-6.107-6.11-6.107z" fill="#8aeeff" data-original="#8aeeff" style=""/><g fill="#ef483c"><path d="m218.907 394.044h-18.569c-11.948 0-21.634-9.686-21.634-21.634 0-11.948 9.686-21.634 21.634-21.634h18.569c11.948 0 21.634 9.686 21.634 21.634 0 11.948-9.686 21.634-21.634 21.634z" fill="#bfbfbf" data-original="#ef483c" style="" class=""/><path d="m311.662 394.044h-18.569c-11.948 0-21.634-9.686-21.634-21.634 0-11.948 9.686-21.634 21.634-21.634h18.569c11.948 0 21.634 9.686 21.634 21.634 0 11.948-9.686 21.634-21.634 21.634z" fill="#bfbfbf" data-original="#ef483c" style="" class=""/></g><g fill="#ef483c"><path d="m218.907 466.808h-18.569c-11.948 0-21.634-9.686-21.634-21.634 0-11.948 9.686-21.634 21.634-21.634h18.569c11.948 0 21.634 9.686 21.634 21.634 0 11.948-9.686 21.634-21.634 21.634z" fill="#bfbfbf" data-original="#ef483c" style="" class=""/><path d="m311.662 466.808h-18.569c-11.948 0-21.634-9.686-21.634-21.634 0-11.948 9.686-21.634 21.634-21.634h18.569c11.948 0 21.634 9.686 21.634 21.634 0 11.948-9.686 21.634-21.634 21.634z" fill="#bfbfbf" data-original="#ef483c" style="" class=""/></g><path d="m343.603 295.889h-175.206c-4.143 0-7.5 3.357-7.5 7.5s3.357 7.5 7.5 7.5h175.205c4.143 0 7.5-3.357 7.5-7.5s-3.357-7.5-7.499-7.5z" fill="#497285" data-original="#497285" style="" class=""/></g></g></svg>
