<svg xmlns="http://www.w3.org/2000/svg" width="512" height="512" viewBox="0 0 64 64"><g xmlns="http://www.w3.org/2000/svg"><path d="M34.58 20H4v20.79c1.02-1.69 2.38-3.15 4-4.28V24h10v10.14c1.41.2 2.75.62 4 1.21 3.55 1.69 6.28 4.82 7.42 8.65h5.16c.92-3.07 2.85-5.7 5.42-7.49v-9.02c-2.57-1.79-4.5-4.42-5.42-7.49z" fill="#fff5ec" data-original="#f0d0b4"/><path d="M48 2c7.73 0 14 6.27 14 14s-6.27 14-14 14c-2.97 0-5.73-.93-8-2.51-2.57-1.79-4.5-4.42-5.42-7.49-.38-1.27-.58-2.61-.58-4 0-1.83.35-3.57.99-5.17C37.05 5.65 42.1 2 48 2zm0 32c7.73 0 14 6.27 14 14s-6.27 14-14 14-14-6.27-14-14c0-1.39.2-2.73.58-4 .92-3.07 2.85-5.7 5.42-7.49 2.27-1.58 5.03-2.51 8-2.51z" fill="#e6e9ed" data-original="#e6e9ed"/><path d="M54.41 20.59c.38.37.59.88.59 1.41s-.21 1.04-.59 1.41c-.37.38-.88.59-1.41.59s-1.04-.21-1.41-.59l-5.77-5.76c-.57.22-1.18.35-1.82.35-2.76 0-5-2.24-5-5l1-1 2 2c1.66 0 3-1.34 3-3l-2-2 1-1c2.76 0 5 2.24 5 5 0 .64-.13 1.25-.35 1.82zM55 41c0 3.3-.63 6.58-1.86 9.64L53 51l-4-4-4-4 .36-.14C48.42 41.63 51.7 41 55 41z" fill="#003180" data-original="#fcd770"/><path d="M45.41 50.59c.38.37.59.88.59 1.41s-.21 1.04-.59 1.41l-2 2c-.37.38-.88.59-1.41.59s-1.04-.21-1.41-.59c-.38-.37-.59-.88-.59-1.41s.21-1.04.59-1.41l2-2c.37-.38.88-.59 1.41-.59s1.04.21 1.41.59z" fill="#0a0a0a" data-original="#d3a06c"/><path d="M26 26h10v8H26z" fill="#b3b3b3" data-original="#69d6f4"/><path d="M29.42 44c.38 1.27.58 2.61.58 4 0 7.73-6.27 14-14 14S2 55.73 2 48c0-2.63.73-5.1 2-7.21 1.02-1.69 2.38-3.15 4-4.28 2.27-1.58 5.03-2.51 8-2.51.68 0 1.35.05 2 .14 1.41.2 2.75.62 4 1.21 3.55 1.69 6.28 4.82 7.42 8.65z" fill="#e6e9ed" data-original="#e6e9ed"/><path d="M22 40c1.1 0 2 .9 2 2 0 .55-.22 1.05-.59 1.41-.36.37-.86.59-1.41.59h-8c-1.1 0-2-.9-2-2 0-.55.22-1.05.59-1.41.36-.37.86-.59 1.41-.59z" fill="#003180" data-original="#fcd770"/><path d="M34 16H2v4h32.58c-.38-1.27-.58-2.61-.58-4z" fill="#00378f" data-original="#fc6e51"/><path d="M28.99 6.41l-5.18-3.82C23.28 2.21 22.65 2 22 2s-1.28.21-1.81.59l-7.44 5.49L2 16h32c0-1.83.35-3.57.99-5.17z" fill="#003180" data-original="#ff826e"/><path d="M18 54v2c0 1.1-.9 2-2 2s-2-.9-2-2v-2c0-1.1.9-2 2-2 .55 0 1.05.22 1.41.59.37.36.59.86.59 1.41z" fill="#0a0a0a" data-original="#d3a06c"/><path d="M18 24v10.14a14.6 14.6 0 00-2-.14c-2.97 0-5.73.93-8 2.51V24z" fill="#aab2bd" data-original="#aab2bd"/><path d="M48 33a14.9 14.9 0 00-7 1.744v-5.487A14.911 14.911 0 0048 31c8.271 0 15-6.729 15-15S56.271 1 48 1c-5.863 0-10.937 3.389-13.403 8.303L24.398 1.787c-1.38-1.016-3.416-1.017-4.796.001L1 15.495V21h2v19.548A14.895 14.895 0 001 48c0 8.271 6.729 15 15 15s15-6.729 15-15c0-1.027-.105-2.03-.302-3h2.605c-.198.97-.303 1.973-.303 3 0 8.271 6.729 15 15 15s15-6.729 15-15-6.729-15-15-15zm0-30c7.168 0 13 5.832 13 13s-5.832 13-13 13-13-5.832-13-13S40.832 3 48 3zM33.051 17c.045.678.119 1.349.252 2H23v-2zM27.542 6.588L25 9.638V13h2v-1.382l2.553 1.276.895-1.789-2.87-1.435 1.578-1.894 4.647 3.424a14.894 14.894 0 00-.751 3.799H23V3.291c.069.038.148.059.212.106zm-6.754-3.19c.064-.047.142-.068.212-.106V15H5.042l7.284-5.367.962 2.244 5.516 1.104.393-1.961-4.484-.896-.733-1.709zM3 17h18v2H3zm2 4h16v12.875a14.79 14.79 0 00-2-.573V23H7v13.028a15.114 15.114 0 00-2 1.808zm12 12.051c-.332-.022-.662-.051-1-.051a14.9 14.9 0 00-7 1.744V25h8zM16 61C8.832 61 3 55.168 3 48s5.832-13 13-13 13 5.832 13 13-5.832 13-13 13zm14.125-18A15.06 15.06 0 0023 34.744V21h10.875a14.971 14.971 0 002.153 4H25v10h12v-8.836c.611.661 1.28 1.265 2 1.808v8.057A15.041 15.041 0 0033.875 43zM35 27v6h-8v-6zm13 34c-7.168 0-13-5.832-13-13s5.832-13 13-13 13 5.832 13 13-5.832 13-13 13z" data-original="#000000"/><path d="M22 39h-8a2.996 2.996 0 00-2.816 2H7v5.781l8 2v2.403A2.996 2.996 0 0013 54v2c0 1.654 1.346 3 3 3s3-1.346 3-3v-2a2.996 2.996 0 00-2-2.816v-3.966l-8-2V43h2.184A2.996 2.996 0 0014 45h8c1.654 0 3-1.346 3-3s-1.346-3-3-3zm-5 17a1.001 1.001 0 01-2 0v-2a1.001 1.001 0 012 0zm5-13h-8a1.001 1.001 0 010-2h8a1.001 1.001 0 010 2zm22-24c.518 0 1.036-.07 1.547-.211l5.332 5.332c.566.567 1.32.879 2.121.879s1.555-.313 2.121-.879c.567-.566.879-1.32.879-2.121s-.312-1.555-.879-2.121l-5.332-5.332c.14-.511.211-1.028.211-1.547 0-3.309-2.691-6-6-6h-.414l-2 2 2.378 2.378a2.003 2.003 0 01-1.585 1.586L40 10.586l-2 2V13c0 3.309 2.691 6 6 6zm-2.414-4H42c2.206 0 4-1.794 4-4v-.414l-1.562-1.563A4.007 4.007 0 0148 13c0 .483-.096.973-.284 1.453l-.24.609 6.231 6.23c.191.192.293.437.293.708s-.102.516-.293.707a1.014 1.014 0 01-1.414 0l-6.23-6.23-.609.239A3.994 3.994 0 0144 17a4.006 4.006 0 01-3.976-3.562zm3.401 26.929l-1.768.705L47.586 47l-2.31 2.311c-1.111-.501-2.51-.319-3.396.568l-2 2c-.568.566-.88 1.32-.88 2.121s.312 1.555.879 2.121c.566.567 1.32.879 2.121.879s1.555-.313 2.121-.879l2-2c.567-.566.879-1.32.879-2.121 0-.454-.11-.887-.3-1.285l2.3-2.3 4.365 4.365.707-1.766A26.872 26.872 0 0056 41v-1h-1a26.82 26.82 0 00-10.013 1.929zm-.28 10.778l-2 2a1.014 1.014 0 01-1.414 0C41.102 54.516 41 54.271 41 54s.102-.516.293-.707l2-2c.192-.191.436-.293.707-.293s.515.102.707.293c.191.191.293.436.293.707s-.102.516-.293.707zm7.908-3.507L46.8 43.385a24.791 24.791 0 017.18-1.364 24.826 24.826 0 01-1.365 7.179z" data-original="#000000"/></g></svg>