<svg xmlns="http://www.w3.org/2000/svg" width="512" height="512" viewBox="0 0 60 44"><g xmlns="http://www.w3.org/2000/svg" id="Page-1" fill="none" fill-rule="evenodd"><g id="022---Surgical-Mask" fill-rule="nonzero"><g id="Icons" transform="translate(9)"><path id="Shape" d="M41 11v2l-4-.01a16.778 16.778 0 01-12.91-6.52 3.985 3.985 0 00-6.19.01A16.764 16.764 0 015 12.99L1 13v-2a2.006 2.006 0 012-2h1.51A13.331 13.331 0 0014.8 3.95a7.99 7.99 0 0112.4 0A13.331 13.331 0 0037.49 9H39a2.006 2.006 0 012 2z" fill="#3f51b4" data-original="#3f51b4"/><path id="Shape" d="M39 9h-1.51A13.331 13.331 0 0127.2 3.95a7.891 7.891 0 00-7.7-2.8 7.962 7.962 0 014.7 2.8A13.331 13.331 0 0034.49 9H36a2.006 2.006 0 012 2v1.992L41 13v-2a2.006 2.006 0 00-2-2z" fill="#283592" data-original="#283592"/><path id="Shape" d="M41 13v9c.083 10.655-7.867 19.665-18.45 20.91-1.03.12-2.07.12-3.1 0C8.867 41.665.917 32.655 1 22v-9l4-.01a16.764 16.764 0 0012.9-6.51 3.985 3.985 0 016.19-.01A16.778 16.778 0 0037 12.99z" fill="#003180" data-original="#02a8f3"/><path id="Shape" d="M37 12.99a16.778 16.778 0 01-12.91-6.52 3.918 3.918 0 00-4.59-1.159c.62.245 1.167.644 1.59 1.159A16.778 16.778 0 0034 12.99l4 .01v9c.083 10.655-7.867 19.665-18.45 20.91h-.05c1.013.117 2.037.117 3.05 0C33.133 41.665 41.083 32.655 41 22v-9z" fill="#002258" data-original="#0377bb"/></g><g id="Icons_copy" fill="#000"><path id="Shape" d="M16.7 24.955A44.625 44.625 0 0030 26.988a44.625 44.625 0 0013.3-2.033 1 1 0 00-.594-1.91 42.507 42.507 0 01-25.406 0 1 1 0 00-.594 1.91zm.146-5.967c4.352.673 8.75 1.01 13.154 1.006a85.637 85.637 0 0013.154-1.006 1 1 0 10-.308-1.976 84.471 84.471 0 01-25.692 0 1 1 0 00-.308 1.976zM42.569 30.1a28.632 28.632 0 01-25.138 0 1 1 0 10-.862 1.8 30.6 30.6 0 0026.862 0 1 1 0 10-.862-1.8z" data-original="#000000"/><path id="Shape" d="M56 10h-5.184A3 3 0 0048 8h-1.51a12.337 12.337 0 01-9.513-4.68 8.992 8.992 0 00-13.952 0A12.338 12.338 0 0113.51 8H12a3 3 0 00-2.816 2H4a4 4 0 00-4 4v5c0 5.256 4.706 10.093 10.418 10.881a21.557 21.557 0 0017.933 14.026c1.097.124 2.203.124 3.3 0a21.557 21.557 0 0017.931-14.026C55.294 29.093 60 24.256 60 19v-5a4 4 0 00-4-4zm-44 0h1.51a14.336 14.336 0 0011.067-5.42 6.99 6.99 0 0110.849 0A14.332 14.332 0 0046.49 10H48a1 1 0 011 1v1l-3-.005h-.02A15.834 15.834 0 0133.87 5.84a4.989 4.989 0 00-7.747.009 15.821 15.821 0 01-12.1 6.144H14L11 12v-1a1 1 0 011-1zM2 19v-5a2 2 0 012-2h5v10a22.65 22.65 0 00.745 5.723C5.772 26.766 2 23.372 2 19zm29.442 22.918c-.958.108-1.926.108-2.884 0A19.568 19.568 0 0112.12 28.661v-.01A20.5 20.5 0 0111 22v-8l3-.005a17.717 17.717 0 0013.675-6.882 2.99 2.99 0 014.645-.008 17.824 17.824 0 0013.657 6.89H46L49 14v8a20.5 20.5 0 01-1.117 6.649v.01a19.568 19.568 0 01-16.441 13.259zM58 19c0 4.372-3.772 7.766-7.745 8.725.492-1.869.742-3.793.745-5.725V12h5a2 2 0 012 2z" data-original="#000000"/></g></g></g></svg>