<svg xmlns="http://www.w3.org/2000/svg" width="512" height="512"><g xmlns="http://www.w3.org/2000/svg"><path d="M271.459 67.794h-30.918V4.122A4.122 4.122 0 01244.663 0h22.675a4.122 4.122 0 014.122 4.122v63.672z" fill="#497285" data-original="#497285"/><path d="M295.163 94.79h-78.327V60.865a4.122 4.122 0 014.122-4.122h70.083a4.122 4.122 0 014.122 4.122z" fill="#d2d5d4" data-original="#d2d5d4"/><path d="M264.245 56.743V94.79h30.918V60.864a4.122 4.122 0 00-4.122-4.121z" fill="#c7c9c8" data-original="#c7c9c8"/><path d="M407.5 106.697v163.801c0 7.416-1.65 14.74-4.83 21.44l-17.137 36.108a50.007 50.007 0 00-4.83 21.44v144.361c0 10.026-8.131 18.153-18.16 18.153H149.456c-10.03 0-18.16-8.127-18.16-18.153v-144.36c0-7.416-1.65-14.74-4.83-21.44l-17.137-36.108a50.007 50.007 0 01-4.83-21.44V106.697c0-10.026 8.131-18.153 18.16-18.153H389.34c10.029 0 18.16 8.128 18.16 18.153z" fill="#003180" data-original="#ffde5c"/><path d="M389.34 88.544h-30.918c10.03 0 18.16 8.127 18.16 18.153v163.801a50 50 0 01-4.83 21.44l-17.136 36.108a50.007 50.007 0 00-4.83 21.44v144.361c0 10.026-8.131 18.153-18.161 18.153h30.918c10.03 0 18.161-8.127 18.161-18.153V349.486c0-7.416 1.65-14.739 4.83-21.44l17.136-36.108a50.004 50.004 0 004.83-21.44V106.697c0-10.025-8.131-18.153-18.16-18.153z" fill="#002258" data-original="#ffc736"/><path d="M376.582 262.13V125.557a6.11 6.11 0 00-6.11-6.108H141.529a6.109 6.109 0 00-6.11 6.108V262.13a6.11 6.11 0 006.11 6.108h228.943a6.11 6.11 0 006.11-6.108z" fill="#b9f5ff" data-original="#b9f5ff"/><path d="M370.471 119.45h-30.918a6.108 6.108 0 016.11 6.108V262.13a6.11 6.11 0 01-6.11 6.108h30.918a6.108 6.108 0 006.11-6.108V125.557a6.107 6.107 0 00-6.11-6.107z" fill="#8aeeff" data-original="#8aeeff"/><path d="M218.907 394.044h-18.569c-11.948 0-21.634-9.686-21.634-21.634s9.686-21.634 21.634-21.634h18.569c11.948 0 21.634 9.686 21.634 21.634s-9.686 21.634-21.634 21.634zm92.755 0h-18.569c-11.948 0-21.634-9.686-21.634-21.634s9.686-21.634 21.634-21.634h18.569c11.948 0 21.634 9.686 21.634 21.634s-9.686 21.634-21.634 21.634zm-92.755 72.764h-18.569c-11.948 0-21.634-9.686-21.634-21.634s9.686-21.634 21.634-21.634h18.569c11.948 0 21.634 9.686 21.634 21.634s-9.686 21.634-21.634 21.634zm92.755 0h-18.569c-11.948 0-21.634-9.686-21.634-21.634s9.686-21.634 21.634-21.634h18.569c11.948 0 21.634 9.686 21.634 21.634s-9.686 21.634-21.634 21.634z" fill="#bfbfbf" data-original="#ef483c"/><path d="M343.603 295.889H168.397c-4.143 0-7.5 3.357-7.5 7.5s3.357 7.5 7.5 7.5h175.205c4.143 0 7.5-3.357 7.5-7.5s-3.357-7.5-7.499-7.5z" fill="#497285" data-original="#497285"/></g></svg>