<svg xmlns="http://www.w3.org/2000/svg" width="512" height="512"><g xmlns="http://www.w3.org/2000/svg"><path d="M134.95 205.661c-36.731 10.954-76.695 1.087-104.198-26.417C2.429 150.922-7.229 109.662 5.547 71.567a15.002 15.002 0 0123.44-7.064l53.563 41.731 23.684-23.685-41.73-53.563a15 15 0 017.064-23.441c38.095-12.774 79.355-3.116 107.677 25.207 27.503 27.503 37.369 67.466 26.416 104.197l171.389 171.39c36.732-10.952 76.695-1.088 104.198 26.416 28.323 28.322 37.981 69.582 25.206 107.678a15.002 15.002 0 01-23.44 7.064l-53.563-41.73-23.684 23.684 41.73 53.563a15 15 0 01-7.064 23.441c-11.119 3.729-22.51 5.547-33.768 5.547-27.313.001-53.854-10.696-73.91-30.753-27.503-27.504-37.369-67.467-26.416-104.198z" fill="#dadfe7" data-original="#dadfe7"/><path d="M134.95 205.661l171.388 171.387c-10.953 36.731-1.087 76.694 26.416 104.198 20.056 20.057 46.597 30.754 73.91 30.753 11.258 0 22.649-1.818 33.768-5.547a15 15 0 007.064-23.441l-41.73-53.563 11.842-11.842L94.392 94.392 82.55 106.235 28.987 64.503a14.998 14.998 0 00-23.44 7.064c-12.776 38.096-3.118 79.355 25.206 107.678 27.503 27.503 67.466 37.37 104.197 26.416z" fill="#c6d0da" data-original="#c6d0da"/><path d="M111.136 351.319l226.24-226.24 49.49 49.49-226.24 226.24z" fill="#9d5e4a" data-original="#9d5e4a"/><path d="M135.879 376.065l226.24-226.24 24.745 24.745-226.24 226.24z" fill="#7d4a3b" data-original="#7d4a3b"/><path d="M14.621 497.379c-19.495-19.495-19.495-51.216 0-70.711l102.53-102.53c5.858-5.858 15.355-5.858 21.213 0l49.497 49.497c5.858 5.858 5.858 15.355 0 21.213l-102.53 102.53c-19.494 19.496-51.214 19.496-70.71.001z" fill="#838383" data-original="#ff8493"/><path d="M420.448 253.833c-9.349 0-18.139-3.642-24.749-10.252L268.42 116.301c-13.646-13.646-13.646-35.851 0-49.497l56.568-56.569c13.647-13.646 35.851-13.646 49.498 0l127.279 127.279c13.646 13.646 13.646 35.851 0 49.497l-56.568 56.569c-6.611 6.611-15.4 10.253-24.749 10.253z" fill="#00429b" data-original="#00429b"/><path d="M85.332 497.379l102.531-102.531c5.858-5.858 5.858-15.355 0-21.213l-24.749-24.749L14.621 497.379c19.496 19.495 51.216 19.495 70.711 0z" fill="#838383" data-original="#e20059"/><path d="M395.699 243.581c6.61 6.61 15.4 10.252 24.749 10.252s18.138-3.642 24.749-10.252l56.568-56.569c13.646-13.646 13.646-35.851 0-49.497l-63.64-63.64L332.059 179.94z" fill="#003180" data-original="#00337a"/></g></svg>